<?xml version="1.0" standalone="no"?>
<!DOCTYPE svg PUBLIC "-//W3C//DTD SVG 20010904//EN"
 "http://www.w3.org/TR/2001/REC-SVG-20010904/DTD/svg10.dtd">
<svg version="1.0" xmlns="http://www.w3.org/2000/svg"
 width="260.000000pt" height="260.000000pt" viewBox="0 0 260.000000 260.000000"
 preserveAspectRatio="xMidYMid meet">
<metadata>
Created by potrace 1.14, written by Peter Selinger 2001-2017
</metadata>
<g transform="translate(0.000000,260.000000) scale(0.100000,-0.100000)"
fill="#000000" stroke="none">
<path d="M1518 2445 c-1 -2 -30 -6 -63 -9 -79 -7 -204 -30 -285 -51 -36 -10
-69 -18 -75 -19 -54 -10 -268 -95 -380 -151 -117 -59 -140 -74 -146 -97 -4
-16 -4 -28 0 -28 5 0 51 20 104 45 290 135 648 217 957 219 220 0 325 -14 475
-67 232 -82 373 -266 360 -470 -9 -141 -94 -288 -215 -372 l-40 -28 0 -74 0
-74 60 32 c290 154 408 503 268 789 -37 75 -150 179 -254 232 -92 48 -226 92
-312 104 -26 3 -56 9 -67 11 -22 6 -381 13 -387 8z"/>
<path d="M1983 1703 c2 -376 2 -374 72 -407 67 -32 63 -55 62 362 l-2 377 -67
3 -67 3 2 -338z"/>
<path d="M380 1955 l0 -66 67 3 67 3 -1 50 c-1 28 -2 56 -2 63 -1 8 -21 12
-66 12 l-65 0 0 -65z"/>
<path d="M1167 1953 c-7 -15 -1 -558 7 -583 21 -64 84 -99 179 -99 l47 1 0 59
0 60 -29 -4 c-17 -3 -38 1 -50 10 -20 13 -21 24 -21 159 0 108 3 144 13 145 6
1 29 0 50 -1 l38 -2 -3 59 -3 58 -47 -1 -48 -1 0 73 0 74 -64 0 c-36 0 -67 -3
-69 -7z"/>
<path d="M208 1869 c-153 -174 -218 -345 -205 -538 18 -247 141 -414 392 -531
79 -37 256 -84 360 -97 84 -10 436 -11 520 -1 285 32 592 117 812 225 l73 35
-1 99 c0 54 -3 99 -6 99 -2 0 -32 -15 -66 -34 -189 -104 -558 -214 -812 -241
-27 -3 -68 -8 -90 -10 -53 -6 -373 -7 -405 -1 -14 3 -47 7 -75 11 -99 12 -222
47 -313 91 -198 96 -295 251 -286 460 5 136 55 275 136 383 41 54 58 111 33
111 -7 0 -37 -27 -67 -61z"/>
<path d="M383 1804 c-2 -7 -3 -114 -1 -238 3 -225 3 -226 28 -250 14 -14 42
-32 63 -41 35 -14 37 -14 38 2 4 74 3 516 -1 526 -7 16 -121 17 -127 1z"/>
<path d="M646 1810 c-11 -4 -13 -60 -14 -272 l0 -268 68 0 67 0 -1 211 c-1
122 3 213 8 217 17 10 127 3 142 -9 11 -9 14 -52 14 -215 l0 -204 64 0 c42 0
65 4 68 13 3 6 4 104 3 217 -2 230 -7 251 -71 290 -32 21 -49 23 -185 24 -82
0 -156 -1 -163 -4z"/>
<path d="M1575 1799 c-91 -45 -136 -125 -138 -243 -1 -84 5 -121 28 -170 63
-133 281 -164 403 -58 l22 20 -41 40 -41 40 -36 -24 c-64 -44 -167 -26 -190
33 -24 61 -32 58 153 63 l170 5 -2 60 c-5 160 -91 256 -229 255 -38 -1 -73 -8
-99 -21z m132 -95 c26 -7 63 -61 63 -91 0 -18 -8 -19 -100 -19 -89 -1 -100 1
-100 17 0 66 68 111 137 93z"/>
<path d="M1549 543 c-1 -5 -2 -33 -3 -63 -1 -49 -4 -55 -21 -52 -75 13 -104 2
-131 -51 -18 -33 -20 -119 -5 -158 22 -59 92 -86 139 -53 20 14 22 14 22 0 0
-21 42 -15 49 7 5 12 6 296 2 365 -1 13 -50 17 -52 5z m-15 -174 c6 -5 10 -38
9 -74 0 -79 -13 -98 -61 -89 -25 5 -34 13 -41 40 -26 95 35 177 93 123z"/>
<path d="M622 528 c-11 -15 2 -58 17 -58 41 0 56 41 22 60 -25 13 -26 13 -39
-2z"/>
<path d="M1270 520 c-22 -40 22 -69 51 -34 9 11 10 20 3 31 -14 23 -43 24 -54
3z"/>
<path d="M824 424 c-19 -10 -30 -12 -32 -5 -2 6 -15 11 -28 11 l-24 0 0 -138
0 -139 28 2 27 1 1 90 c1 127 8 142 64 134 29 -4 34 -20 34 -122 1 -102 1
-102 26 -102 l25 0 2 114 c3 97 0 119 -15 138 -22 28 -71 35 -108 16z"/>
<path d="M1052 423 c-34 -18 -42 -31 -42 -70 0 -37 33 -68 91 -83 50 -14 67
-43 38 -64 -24 -16 -79 -4 -79 19 0 7 -13 15 -30 17 -21 3 -30 0 -30 -9 0 -61
101 -105 163 -71 32 17 46 39 47 72 0 41 -24 64 -87 82 -60 18 -64 21 -52 52
11 28 54 30 71 2 14 -22 68 -28 68 -7 0 24 -30 55 -63 65 -41 13 -62 12 -95
-5z"/>
<path d="M1718 422 c-37 -26 -44 -35 -57 -75 -13 -39 -9 -103 9 -136 5 -11 24
-29 41 -42 24 -17 40 -20 76 -16 56 6 93 37 73 62 -12 14 -15 14 -37 0 -13 -9
-36 -15 -50 -13 -26 3 -72 52 -60 64 3 4 41 7 84 8 l78 1 1 40 c1 44 -21 91
-49 106 -31 17 -85 18 -109 1z m80 -48 c12 -8 22 -24 22 -35 0 -16 -7 -19 -55
-19 -30 0 -55 4 -55 9 0 14 41 61 54 61 6 0 22 -7 34 -16z"/>
<path d="M620 292 l0 -137 28 0 28 -1 0 138 0 138 -28 0 -28 0 0 -138z"/>
<path d="M1269 423 c-3 -31 -4 -232 -1 -250 3 -17 10 -21 26 -19 11 3 23 5 26
5 3 1 5 61 5 134 l0 132 -28 3 c-15 2 -27 0 -28 -5z"/>
</g>
</svg>
