<svg width="173" height="105" viewBox="0 0 173 105" fill="none" xmlns="http://www.w3.org/2000/svg">
<path d="M39.232 104.44C26.464 104.44 16.912 100.888 10.576 93.784C4.336 86.68 0.928 77.368 0.352 65.848C0.256 63.256 0.208001 58.84 0.208001 52.6C0.208001 46.264 0.256 41.752 0.352 39.064C0.832 27.736 4.288 18.52 10.72 11.416C17.152 4.31199 26.656 0.759995 39.232 0.759995C51.904 0.759995 61.456 4.31199 67.888 11.416C74.32 18.52 77.728 27.736 78.112 39.064C78.304 41.752 78.4 46.264 78.4 52.6C78.4 58.84 78.304 63.256 78.112 65.848C77.632 77.368 74.224 86.68 67.888 93.784C61.648 100.888 52.096 104.44 39.232 104.44ZM39.232 87.88C45.28 87.88 49.792 85.912 52.768 81.976C55.744 77.944 57.328 72.328 57.52 65.128C57.712 59.56 57.808 55.336 57.808 52.456C57.808 49.288 57.712 45.112 57.52 39.928C57.328 32.824 55.744 27.256 52.768 23.224C49.792 19.192 45.28 17.176 39.232 17.176C33.28 17.176 28.768 19.192 25.696 23.224C22.72 27.256 21.136 32.824 20.944 39.928C20.848 42.52 20.8 46.696 20.8 52.456C20.8 58.12 20.848 62.344 20.944 65.128C21.136 72.328 22.72 77.944 25.696 81.976C28.768 85.912 33.28 87.88 39.232 87.88ZM132.577 104.44C124.513 104.44 117.457 102.904 111.409 99.832C105.361 96.76 100.705 92.584 97.4406 87.304C94.1766 81.928 92.5446 75.88 92.5446 69.16C92.5446 60.616 96.2406 51.304 103.633 41.224L129.985 5.08C130.561 4.216 131.185 3.544 131.857 3.064C132.625 2.488 133.633 2.19999 134.881 2.19999H148.273C149.137 2.19999 149.857 2.53599 150.433 3.208C151.009 3.784 151.297 4.50399 151.297 5.368C151.297 5.84799 151.057 6.472 150.577 7.24L130.417 35.176C132.337 34.696 134.401 34.456 136.609 34.456C143.041 34.648 148.945 36.28 154.321 39.352C159.793 42.328 164.113 46.408 167.281 51.592C170.545 56.776 172.177 62.536 172.177 68.872C172.177 75.304 170.545 81.256 167.281 86.728C164.113 92.104 159.505 96.424 153.457 99.688C147.505 102.856 140.545 104.44 132.577 104.44ZM132.433 87.88C137.905 87.88 142.513 86.248 146.257 82.984C150.001 79.624 151.873 74.968 151.873 69.016C151.873 63.16 150.001 58.6 146.257 55.336C142.513 51.976 137.905 50.296 132.433 50.296C126.961 50.296 122.353 51.976 118.609 55.336C114.865 58.6 112.993 63.16 112.993 69.016C112.993 74.968 114.865 79.624 118.609 82.984C122.353 86.248 126.961 87.88 132.433 87.88Z" fill="#16314C"/>
</svg>
