<svg width="340" height="104" viewBox="0 0 340 104" fill="none" xmlns="http://www.w3.org/2000/svg">
<path d="M37.008 102.24C36.048 102.24 35.232 101.904 34.56 101.232C33.888 100.56 33.552 99.744 33.552 98.784V24.192L11.664 41.04C11.088 41.52 10.416 41.76 9.648 41.76C8.496 41.76 7.536 41.232 6.768 40.176L0.72 32.4C0.24 31.632 0 30.912 0 30.24C0 29.088 0.528 28.128 1.584 27.36L33.84 2.448C34.704 1.776 35.904 1.44 37.44 1.44H50.112C51.168 1.44 51.984 1.776 52.56 2.448C53.232 3.024 53.568 3.84 53.568 4.896V98.784C53.568 99.744 53.232 100.56 52.56 101.232C51.984 101.904 51.168 102.24 50.112 102.24H37.008Z" fill="#16314C"/>
<path d="M111.008 103.68C98.2402 103.68 88.6882 100.128 82.3522 93.024C76.1122 85.92 72.7043 76.608 72.1283 65.088C72.0323 62.496 71.9843 58.08 71.9843 51.84C71.9843 45.504 72.0323 40.992 72.1283 38.304C72.6083 26.976 76.0643 17.76 82.4963 10.656C88.9283 3.552 98.4322 0 111.008 0C123.68 0 133.232 3.552 139.664 10.656C146.096 17.76 149.504 26.976 149.888 38.304C150.08 40.992 150.176 45.504 150.176 51.84C150.176 58.08 150.08 62.496 149.888 65.088C149.408 76.608 146 85.92 139.664 93.024C133.424 100.128 123.872 103.68 111.008 103.68ZM111.008 87.12C117.056 87.12 121.568 85.152 124.544 81.216C127.52 77.184 129.104 71.568 129.296 64.368C129.488 58.8 129.584 54.576 129.584 51.696C129.584 48.528 129.488 44.352 129.296 39.168C129.104 32.064 127.52 26.496 124.544 22.464C121.568 18.432 117.056 16.416 111.008 16.416C105.056 16.416 100.544 18.432 97.4723 22.464C94.4963 26.496 92.9123 32.064 92.7203 39.168C92.6243 41.76 92.5762 45.936 92.5762 51.696C92.5762 57.36 92.6243 61.584 92.7203 64.368C92.9123 71.568 94.4963 77.184 97.4723 81.216C100.544 85.152 105.056 87.12 111.008 87.12Z" fill="#16314C"/>
<path d="M205.649 103.68C192.881 103.68 183.329 100.128 176.993 93.024C170.753 85.92 167.345 76.608 166.769 65.088C166.673 62.496 166.625 58.08 166.625 51.84C166.625 45.504 166.673 40.992 166.769 38.304C167.249 26.976 170.705 17.76 177.137 10.656C183.569 3.552 193.073 0 205.649 0C218.321 0 227.873 3.552 234.305 10.656C240.737 17.76 244.145 26.976 244.529 38.304C244.721 40.992 244.817 45.504 244.817 51.84C244.817 58.08 244.721 62.496 244.529 65.088C244.049 76.608 240.641 85.92 234.305 93.024C228.065 100.128 218.513 103.68 205.649 103.68ZM205.649 87.12C211.697 87.12 216.209 85.152 219.185 81.216C222.161 77.184 223.745 71.568 223.937 64.368C224.129 58.8 224.225 54.576 224.225 51.696C224.225 48.528 224.129 44.352 223.937 39.168C223.745 32.064 222.161 26.496 219.185 22.464C216.209 18.432 211.697 16.416 205.649 16.416C199.697 16.416 195.185 18.432 192.113 22.464C189.137 26.496 187.553 32.064 187.361 39.168C187.265 41.76 187.217 45.936 187.217 51.696C187.217 57.36 187.265 61.584 187.361 64.368C187.553 71.568 189.137 77.184 192.113 81.216C195.185 85.152 199.697 87.12 205.649 87.12Z" fill="#16314C"/>
<path d="M300.289 103.68C287.521 103.68 277.97 100.128 271.634 93.024C265.394 85.92 261.985 76.608 261.409 65.088C261.313 62.496 261.266 58.08 261.266 51.84C261.266 45.504 261.313 40.992 261.409 38.304C261.889 26.976 265.345 17.76 271.777 10.656C278.209 3.552 287.713 0 300.289 0C312.961 0 322.513 3.552 328.945 10.656C335.377 17.76 338.785 26.976 339.169 38.304C339.361 40.992 339.457 45.504 339.457 51.84C339.457 58.08 339.361 62.496 339.169 65.088C338.689 76.608 335.281 85.92 328.945 93.024C322.705 100.128 313.153 103.68 300.289 103.68ZM300.289 87.12C306.337 87.12 310.85 85.152 313.826 81.216C316.801 77.184 318.386 71.568 318.578 64.368C318.77 58.8 318.866 54.576 318.866 51.696C318.866 48.528 318.77 44.352 318.578 39.168C318.386 32.064 316.801 26.496 313.826 22.464C310.85 18.432 306.337 16.416 300.289 16.416C294.337 16.416 289.826 18.432 286.754 22.464C283.778 26.496 282.193 32.064 282.001 39.168C281.905 41.76 281.858 45.936 281.858 51.696C281.858 57.36 281.905 61.584 282.001 64.368C282.193 71.568 283.778 77.184 286.754 81.216C289.826 85.152 294.337 87.12 300.289 87.12Z" fill="#16314C"/>
<path d="M299.152 63C298.843 63 298.579 62.8908 298.362 62.6723C298.146 62.4538 298.037 62.1885 298.037 61.8764V52.7472H289.115C288.805 52.7472 288.542 52.638 288.325 52.4195C288.108 52.201 288 51.9201 288 51.5768V49.1423C288 48.799 288.108 48.5337 288.325 48.3464C288.542 48.128 288.805 48.0187 289.115 48.0187H298.037V39.1236C298.037 38.7803 298.146 38.515 298.362 38.3277C298.579 38.1092 298.843 38 299.152 38H301.848C302.188 38 302.452 38.1092 302.638 38.3277C302.854 38.515 302.963 38.7803 302.963 39.1236V48.0187H311.885C312.226 48.0187 312.489 48.128 312.675 48.3464C312.892 48.5337 313 48.799 313 49.1423V51.5768C313 51.9201 312.892 52.201 312.675 52.4195C312.458 52.638 312.195 52.7472 311.885 52.7472H302.963V61.8764C302.963 62.1885 302.854 62.4538 302.638 62.6723C302.452 62.8908 302.188 63 301.848 63H299.152Z" fill="#16314C"/>
</svg>
