<svg width="149" height="103" viewBox="0 0 149 103" fill="none" xmlns="http://www.w3.org/2000/svg">
<path d="M37.8879 101C36.9279 101 36.1119 100.664 35.4399 99.992C34.7679 99.32 34.4319 98.504 34.4319 97.544V22.952L12.5439 39.8C11.9679 40.28 11.2959 40.52 10.5279 40.52C9.37588 40.52 8.41588 39.992 7.64788 38.936L1.59988 31.16C1.11988 30.392 0.879883 29.672 0.879883 29C0.879883 27.848 1.40788 26.888 2.46388 26.12L34.7199 1.20802C35.5839 0.536014 36.7839 0.200012 38.3199 0.200012H50.9919C52.0479 0.200012 52.8639 0.536014 53.4399 1.20802C54.1119 1.78401 54.4479 2.60001 54.4479 3.65601V97.544C54.4479 98.504 54.1119 99.32 53.4399 99.992C52.8639 100.664 52.0479 101 50.9919 101H37.8879Z" fill="#16314C"/>
<path d="M108.72 102.584C100.752 102.584 93.8881 101.24 88.1281 98.552C82.4641 95.864 78.0961 92.312 75.0241 87.896C72.0481 83.48 70.4641 78.728 70.2721 73.64V73.352C70.2721 72.584 70.5601 71.96 71.1361 71.48C71.7121 71 72.4321 70.76 73.2961 70.76H86.6881C88.8961 70.76 90.3361 71.72 91.0081 73.64C92.3521 77.864 94.5601 80.984 97.6321 83C100.8 85.016 104.496 86.024 108.72 86.024C114.096 86.024 118.56 84.392 122.112 81.128C125.76 77.864 127.584 73.304 127.584 67.448C127.584 62.264 125.76 58.04 122.112 54.776C118.56 51.512 114.096 49.88 108.72 49.88C105.84 49.88 103.488 50.264 101.664 51.032C99.8401 51.8 98.0641 52.856 96.3361 54.2C95.1841 55.064 94.2721 55.688 93.6001 56.072C93.0241 56.36 92.3041 56.504 91.4401 56.504H78.1921C77.3281 56.504 76.5601 56.216 75.8881 55.64C75.3121 54.968 75.0241 54.2 75.0241 53.336L80.0641 4.08801C80.1601 2.93601 80.5441 2.02401 81.2161 1.35201C81.9841 0.584013 82.9441 0.200012 84.0961 0.200012H138.24C139.2 0.200012 140.016 0.536014 140.688 1.20802C141.36 1.88001 141.696 2.69601 141.696 3.65601V13.304C141.696 14.264 141.36 15.08 140.688 15.752C140.016 16.424 139.2 16.76 138.24 16.76H96.6241L94.3201 40.232C99.0241 36.968 105.312 35.336 113.184 35.336C119.424 35.336 125.184 36.68 130.464 39.368C135.84 41.96 140.112 45.752 143.28 50.744C146.448 55.64 148.032 61.352 148.032 67.88C148.032 74.888 146.4 81.032 143.136 86.312C139.872 91.496 135.264 95.528 129.312 98.408C123.456 101.192 116.592 102.584 108.72 102.584Z" fill="#16314C"/>
</svg>
