<svg width="17" height="17" viewBox="0 0 17 17" fill="none" xmlns="http://www.w3.org/2000/svg">
<path d="M13.8149 9.0315C13.8149 7.98078 13.5034 6.95367 12.9196 6.08003C12.3359 5.20639 11.5062 4.52548 10.5354 4.12339C9.56472 3.7213 8.49655 3.61609 7.46603 3.82107C6.4355 4.02606 5.48891 4.53203 4.74594 5.27499C4.00297 6.01796 3.49701 6.96455 3.29202 7.99508C3.08704 9.0256 3.19224 10.0938 3.59433 11.0645C3.99642 12.0352 4.67734 12.8649 5.55098 13.4487C6.42461 14.0324 7.45173 14.344 8.50244 14.344C9.91141 14.344 11.2627 13.7843 12.2589 12.788C13.2552 11.7917 13.8149 10.4405 13.8149 9.0315Z" stroke="#98A5B0" stroke-miterlimit="10"/>
<path d="M4.71895 3.0287C4.44017 2.79014 4.08579 2.65825 3.71887 2.65649L3.62624 2.65915C2.7779 2.71028 2.12512 3.45337 2.12745 4.34985C2.12745 4.78847 2.28217 4.993 2.4887 5.25397C2.50153 5.27074 2.51773 5.28464 2.53626 5.29476C2.55479 5.30488 2.57523 5.31101 2.59628 5.31274H2.62549C2.64195 5.31245 2.65811 5.30837 2.67273 5.30083C2.68736 5.29329 2.70005 5.28248 2.70983 5.26925L4.72758 3.28735C4.74481 3.26993 4.75827 3.24915 4.76713 3.2263C4.77598 3.20345 4.78004 3.17902 4.77905 3.15454C4.77821 3.13056 4.77244 3.10701 4.7621 3.08536C4.75176 3.06371 4.73707 3.04442 4.71895 3.0287V3.0287Z" stroke="#98A5B0" stroke-miterlimit="10"/>
<path d="M12.2814 3.0287C12.5602 2.79014 12.9146 2.65825 13.2815 2.65649L13.3741 2.65915C14.2225 2.71028 14.8753 3.45337 14.8729 4.34985C14.8729 4.78847 14.7182 4.993 14.5117 5.25397C14.4988 5.27068 14.4826 5.28451 14.4641 5.29458C14.4456 5.30464 14.4251 5.31072 14.4041 5.31241H14.3749C14.3584 5.31212 14.3423 5.30804 14.3277 5.3005C14.313 5.29296 14.3003 5.28215 14.2906 5.26892L12.2728 3.28735C12.2556 3.26993 12.2421 3.24915 12.2333 3.2263C12.2244 3.20345 12.2203 3.17902 12.2213 3.15454C12.2222 3.13056 12.2279 3.10701 12.2383 3.08536C12.2486 3.06371 12.2633 3.04442 12.2814 3.0287V3.0287Z" stroke="#98A5B0" stroke-miterlimit="10"/>
<path d="M8.50244 5.31299V9.03174H5.84619" stroke="#98A5B0" stroke-linecap="round" stroke-linejoin="round"/>
<path d="M13.8149 14.344L12.4868 13.0159" stroke="#98A5B0" stroke-linecap="round" stroke-linejoin="round"/>
<path d="M3.18994 14.344L4.51807 13.0159" stroke="#98A5B0" stroke-linecap="round" stroke-linejoin="round"/>
</svg>
