<svg width="16" height="16" viewBox="0 0 16 16" fill="none" xmlns="http://www.w3.org/2000/svg">
<path d="M8 1.49976C5.51562 1.49976 3.5 3.41819 3.5 5.781C3.5 8.49975 6.5 12.8082 7.60156 14.2963C7.64729 14.3591 7.70722 14.4102 7.77646 14.4455C7.84571 14.4807 7.9223 14.4991 8 14.4991C8.0777 14.4991 8.15429 14.4807 8.22354 14.4455C8.29278 14.4102 8.35271 14.3591 8.39844 14.2963C9.5 12.8088 12.5 8.50194 12.5 5.781C12.5 3.41819 10.4844 1.49976 8 1.49976Z" stroke="#98A5B0" stroke-linecap="round" stroke-linejoin="round"/>
<path d="M8 7.5C8.82843 7.5 9.5 6.82843 9.5 6C9.5 5.17157 8.82843 4.5 8 4.5C7.17157 4.5 6.5 5.17157 6.5 6C6.5 6.82843 7.17157 7.5 8 7.5Z" stroke="#98A5B0" stroke-linecap="round" stroke-linejoin="round"/>
</svg>
