<svg width="15" height="15" viewBox="0 0 15 15" fill="none" xmlns="http://www.w3.org/2000/svg">
<path d="M13.2128 10.956C12.7476 10.4872 11.6208 9.80312 11.0741 9.52744C10.3622 9.16884 10.3036 9.13955 9.74406 9.55527C9.37082 9.83271 9.12268 10.0806 8.68586 9.9874C8.24904 9.89424 7.29982 9.36894 6.46867 8.54043C5.63752 7.71191 5.08176 6.73515 4.9883 6.2998C4.89484 5.86445 5.1468 5.61924 5.4216 5.24512C5.80891 4.71777 5.77961 4.62988 5.44856 3.91797C5.19045 3.36426 4.48645 2.24805 4.01594 1.78516C3.51262 1.28799 3.51262 1.37588 3.1883 1.51064C2.92427 1.62173 2.67097 1.75677 2.43156 1.91406C1.96281 2.22549 1.70266 2.48418 1.52072 2.87295C1.33879 3.26172 1.25705 4.17314 2.1966 5.87998C3.13615 7.58681 3.79533 8.45957 5.15969 9.82011C6.52404 11.1807 7.57317 11.9122 9.10686 12.7724C11.0041 13.835 11.7319 13.6278 12.1218 13.4462C12.5117 13.2645 12.7716 13.0067 13.0836 12.538C13.2413 12.299 13.3766 12.046 13.4879 11.7821C13.623 11.459 13.7109 11.459 13.2128 10.956Z" stroke="#98A5B0" stroke-miterlimit="10"/>
</svg>
