<svg width="25" height="25" fill="none" xmlns="http://www.w3.org/2000/svg"><path d="M16.667 12.5h2.777A6.947 6.947 0 0 0 12.5 5.556v2.777a4.161 4.161 0 0 1 4.167 4.167Zm5.555 0H25C25 5.597 19.403 0 12.5 0v2.778a9.715 9.715 0 0 1 9.722 9.722Zm1.39 4.861c-1.737 0-3.404-.278-4.96-.792a1.551 1.551 0 0 0-.43-.069c-.36 0-.708.139-.986.403l-3.055 3.055c-3.931-2-7.153-5.208-9.153-9.152l3.055-3.07c.39-.361.5-.903.348-1.389a15.778 15.778 0 0 1-.792-4.958C7.639.625 7.014 0 6.25 0H1.389C.625 0 0 .625 0 1.389 0 14.43 10.57 25 23.611 25c.764 0 1.389-.625 1.389-1.389V18.75c0-.764-.625-1.389-1.389-1.389ZM2.818 2.778h2.084C5 4 5.208 5.208 5.528 6.36L3.86 8.041A21.316 21.316 0 0 1 2.82 2.779ZM22.222 22.18a20.7 20.7 0 0 1-5.278-1.056l1.667-1.667c1.18.334 2.389.542 3.611.625v2.098Z" fill="#fff"/></svg>