<svg width="45" height="45" fill="none" xmlns="http://www.w3.org/2000/svg"><circle cx="22.5" cy="22.5" r="22.5" fill="url(#a)"/><path d="M29.903 13.5H16.222c-1.545 0-2.722 1.177-2.722 2.722v13.681c0 1.545 1.177 2.722 2.722 2.722h13.681c1.545 0 2.722-1.177 2.722-2.722V16.222c0-1.545-1.177-2.722-2.722-2.722Zm-6.84 15.3c3.163 0 5.737-2.501 5.737-5.517 0-.515-.074-1.103-.22-1.545h1.618v7.798a.737.737 0 0 1-.736.735H16.663a.737.737 0 0 1-.736-.735v-7.871h1.692a5.6 5.6 0 0 0-.22 1.545c-.074 3.089 2.5 5.59 5.663 5.59Zm0-2.207c-2.06 0-3.678-1.618-3.678-3.604s1.618-3.604 3.677-3.604c2.06 0 3.678 1.618 3.678 3.604 0 2.06-1.618 3.604-3.677 3.604Zm7.061-7.87c0 .44-.368.809-.81.809h-2.059a.816.816 0 0 1-.809-.81v-1.986c0-.44.368-.809.81-.809h2.059c.441 0 .809.368.809.81v1.986Z" fill="#fff"/><defs><linearGradient id="a" x1="9.563" y1="39.938" x2="39.375" y2="9" gradientUnits="userSpaceOnUse"><stop stop-color="#EEA054"/><stop offset=".503" stop-color="#D64763"/><stop offset="1" stop-color="#B62A99"/></linearGradient></defs></svg>