<svg width="80" height="70" fill="none" xmlns="http://www.w3.org/2000/svg"><path d="M23.57 21.668v12.358h-4.112V18.493l8.49.008c3.606 0 4.834 2.432 4.834 4.642v10.884h-4.105V23.163c0-.925-.5-1.495-1.709-1.495H23.57Zm27.964-.185c-1.406 0-2.494.69-2.948 1.63-.27.563-.362.994-.394 1.684h6.327c-.081-1.685-.88-3.314-2.985-3.314Zm-3.342 5.992c0 2.012 1.308 3.493 3.643 3.493 1.816 0 2.719-.482 3.769-1.481l2.54 2.32c-1.626 1.536-3.333 2.469-6.34 2.469-3.936 0-7.704-2.054-7.704-8.039 0-5.113 3.29-8.008 7.612-8.008 4.381 0 6.912 3.39 6.912 7.829v1.417H48.192Zm-7.563 6.532c-3.35 0-4.772-2.23-4.772-4.434V14.26h4.106v4.233h3.096v3.175h-3.096v7.658c0 .903.446 1.404 1.425 1.404h1.67v3.277h-2.43Zm-24.83-17.661h-4.14v-3.763h4.14v3.763Zm.01 17.844c-3.1-.285-4.155-2.084-4.155-4.16l.004-11.537h4.151V34.19Zm49.35-.332c-3.094-.285-4.144-2.082-4.144-4.155V12.048h4.144v21.81Zm14.487-19.259C75.891-2.917 40.348-4.026 17.44 9.316v1.473C40.325-.462 72.783-.396 75.74 15.737c.99 5.335-2.153 10.896-7.765 14.093v4.183c6.755-2.364 13.683-10.03 11.671-19.414ZM38.002 45.245C22.192 46.644 5.715 44.448 3.41 32.63c-1.129-5.827 1.646-12.003 5.327-15.84v-2.051C2.11 20.297-1.486 27.334.584 35.648c2.643 10.663 16.784 16.705 38.367 14.699 8.54-.797 19.717-3.424 27.487-7.504v-5.796c-7.05 4.016-18.718 7.338-28.436 8.198ZM20.805 66h-1.78v-7.925h1.78V66Zm-1.89-9.983c0-.273.086-.5.257-.681.176-.18.425-.271.747-.271s.571.09.747.27c.176.182.264.409.264.682a.928.928 0 0 1-.264.674c-.176.176-.425.264-.747.264s-.571-.088-.747-.264a.943.943 0 0 1-.256-.674Zm5.486 2.058.052.916c.586-.708 1.355-1.062 2.307-1.062 1.65 0 2.49.944 2.52 2.834V66H27.5v-5.134c0-.503-.11-.874-.33-1.114-.215-.244-.569-.366-1.062-.366-.718 0-1.253.325-1.604.974V66h-1.78v-7.925h1.677Zm11.14 5.772a.805.805 0 0 0-.395-.725c-.259-.166-.69-.313-1.296-.44-.606-.127-1.111-.288-1.517-.483-.888-.43-1.332-1.052-1.332-1.868 0-.684.288-1.255.864-1.714.576-.459 1.308-.688 2.197-.688.947 0 1.711.234 2.293.703.585.469.878 1.077.878 1.824h-1.78c0-.342-.126-.625-.38-.85-.254-.23-.591-.344-1.011-.344-.39 0-.71.09-.96.27a.857.857 0 0 0-.366.726c0 .273.115.486.345.637.23.151.693.305 1.391.461.698.152 1.245.335 1.64.55.401.21.697.464.887.761.195.298.293.66.293 1.084 0 .713-.295 1.292-.886 1.736-.591.44-1.365.66-2.322.66-.65 0-1.228-.118-1.736-.352-.508-.234-.903-.557-1.186-.967a2.288 2.288 0 0 1-.425-1.326h1.728c.025.42.183.745.476.975.293.224.682.337 1.165.337.469 0 .825-.088 1.07-.264a.837.837 0 0 0 .365-.703Zm5.2 2.153h-1.78v-7.925h1.78V66Zm-1.889-9.983c0-.273.086-.5.256-.681.176-.18.425-.271.748-.271.322 0 .57.09.746.27.176.182.264.409.264.682a.928.928 0 0 1-.264.674c-.175.176-.424.264-.746.264-.323 0-.572-.088-.748-.264a.942.942 0 0 1-.256-.674Zm3.501 5.962c0-1.22.283-2.2.85-2.937.566-.742 1.325-1.113 2.277-1.113.84 0 1.519.293 2.037.879V54.75h1.78V66h-1.612l-.088-.82c-.532.644-1.242.966-2.131.966-.928 0-1.68-.373-2.256-1.12-.571-.747-.857-1.763-.857-3.047Zm1.78.154c0 .805.154 1.435.461 1.89.313.449.755.673 1.326.673.727 0 1.26-.324 1.597-.974v-3.384c-.328-.634-.855-.952-1.582-.952-.577 0-1.02.23-1.333.689-.313.454-.47 1.14-.47 2.058Zm10.51 4.014c-1.128 0-2.043-.355-2.746-1.063-.699-.712-1.048-1.66-1.048-2.841v-.22c0-.791.152-1.497.454-2.117a3.504 3.504 0 0 1 1.29-1.457 3.399 3.399 0 0 1 1.845-.52c1.08 0 1.912.344 2.497 1.032.591.689.887 1.663.887 2.923v.718h-5.178c.053.654.27 1.171.651 1.552.386.381.87.572 1.45.572.816 0 1.48-.33 1.993-.99l.96.916a3.226 3.226 0 0 1-1.275 1.106c-.528.26-1.12.389-1.78.389Zm-.212-6.79c-.489 0-.884.17-1.187.513-.298.341-.488.818-.571 1.428h3.391v-.132c-.04-.596-.198-1.045-.476-1.348-.278-.307-.664-.461-1.157-.461Z" fill="#0071C5"/></svg>