<svg width="90" height="29" fill="none" xmlns="http://www.w3.org/2000/svg"><path d="m74.006 12.187-.284 1.627a3.98 3.98 0 0 0-.393-.457 4.093 4.093 0 0 0-2.877-1.17H58.9l-2.158 11.996-5.713-11.996h-3.363L37.616 23.95l1.526-11.775-12.167 9.913-8.777-9.9H6.516a4.527 4.527 0 0 0-4.527 4.527v.973c0 2.426 1.737 4.393 3.882 4.4H9.98c.021 0 .041.007.063.009.557.042 1 .625 1 1.346 0 .514-.228.955-.56 1.185a.882.882 0 0 1-.504.169c-.013 0-.025-.005-.038-.005l.002.005H.72L0 28.18H13.815c2.302 0 4.168-2.4 4.168-5.363 0-.064-.006-.127-.007-.19.001-.059.007-.116.007-.175 0-1.14-.346-2.183-.922-2.994-.73-1.03-1.827-1.686-3.056-1.686H9.076c-.455 0-.825-.436-.825-.974 0-.537.37-.973.825-.973h10.155L17.264 28.18h4.41l.7-4.093 3.649 4.093 5.014-4.03-.508 4.03h8.632l7.743-9.076 1.437 2.814h-3.837l1.615 3.64h4.08l1.338 2.622H62.54l1.382-7.955.002-.015.848-4.131h2.126c.888 0 1.608.606 1.608 1.353v.001c0 1.543-1.856 2.793-4.147 2.793a6.13 6.13 0 0 1-.427-.015l-.004.006 4.07 7.963h7.448l-3.625-7.249c1.636-.86 2.694-2.754 2.694-4.265 0-.172 0 .185-.005-.587h3.136l-2.2 12.101h6.431l2.285-12.101h5.331L90 12.187H74.006Z" fill="#2069BC"/><path d="m42.19 5.985-.201-.247-8.35 6.824-.37-.455-8.102 6.62.842.951L49.93.131l-.573-.004-7.166 5.858M40.232 5.44l-.201-.246-8.159 6.667-.371-.455-7.437 6.078.843.95L47.324.116l-.572-.003-6.52 5.328M38.398 4.8l-.201-.245-8.158 6.667-.372-.455-6.702 5.477.843.95L44.728.1l-.573-.003L38.398 4.8M36.583 4.152l-.2-.246-8.208 6.707-.372-.454-5.933 4.849.842.95L42.14.084l-.573-.004-4.983 4.073ZM34.773 3.541l-.201-.246-8.175 6.681-.371-.454-5.23 4.274.842.95L39.6.068l-.573-.003-4.255 3.477M32.887 2.972l-.2-.246-8.077 6.6-.372-.455-4.528 3.7.843.951L37.037.052l-.572-.004-3.578 2.924M31.06 2.375l-.2-.246L22.7 8.796l-.371-.454-3.694 3.018.843.95L34.499.037l-.572-.004-2.867 2.343M29.164 1.793l-.2-.246-8.06 6.587-.372-.455-2.991 2.444.843.951L31.91.02l-.573-.004-2.174 1.777ZM27.284 1.198l-.2-.246-8.077 6.6-.372-.454-2.19 1.79.843.95L29.322.004 28.75 0l-1.466 1.198ZM43.823 6.726l-.2-.246-8.175 6.68-.371-.454-8.843 7.226.843.95L52.45.148l-.573-.004-8.055 6.583" fill="#B6B5B5"/></svg>