<svg width="45" height="45" fill="none" xmlns="http://www.w3.org/2000/svg"><circle cx="22.5" cy="22.5" r="22.5" fill="#2F89CE"/><path d="m10.52 22.92 5.172 1.93 2.017 6.488c.088.438.614.526.964.263l2.894-2.367c.263-.264.701-.264 1.052 0l5.173 3.77c.35.263.876.087.964-.351l3.858-18.412c.087-.438-.351-.877-.79-.701L10.52 21.78c-.526.175-.526.965 0 1.14Zm6.926.965 10.17-6.225c.176-.087.35.176.176.263l-8.33 7.804c-.263.262-.526.613-.526 1.052l-.263 2.104c0 .263-.438.35-.526 0l-1.052-3.858c-.263-.438-.087-.964.35-1.14Z" fill="#fff"/></svg>