<svg width="45" height="45" fill="none" xmlns="http://www.w3.org/2000/svg"><circle cx="22.5" cy="22.5" r="22.5" fill="#48C95F"/><path d="M31.418 13.57a11.732 11.732 0 0 0-8.314-3.445c-6.503 0-11.772 5.25-11.772 11.73 0 2.051.576 4.102 1.564 5.825l-1.646 6.07 6.256-1.64a12.036 12.036 0 0 0 5.598 1.394c6.503 0 11.771-5.25 11.771-11.73-.082-3.036-1.235-5.989-3.457-8.204Zm-2.634 12.47c-.247.655-1.4 1.312-1.976 1.394a4.617 4.617 0 0 1-1.811-.082c-.412-.165-.988-.329-1.646-.657-2.964-1.23-4.857-4.183-5.022-4.43-.164-.163-1.235-1.558-1.235-3.035 0-1.476.741-2.132.988-2.46.247-.329.576-.329.823-.329h.577c.164 0 .411-.082.658.493.247.574.823 2.05.906 2.132a.521.521 0 0 1 0 .493 1.716 1.716 0 0 1-.33.492c-.164.164-.329.41-.411.492-.165.164-.33.328-.165.574.165.328.741 1.23 1.647 2.051 1.152.984 2.058 1.313 2.387 1.477.329.164.494.082.658-.082.165-.165.741-.82.906-1.149.164-.328.411-.246.658-.164.247.082 1.729.82 1.976.984.33.164.494.246.576.328.082.247.082.82-.165 1.477Z" fill="#fff"/></svg>